<svg width="132" height="42" viewBox="0 0 132 42" fill="none" xmlns="http://www.w3.org/2000/svg">
<g clip-path="url(#clip0_798_41470)">
<path d="M119.707 19.5338C119.511 19.6708 119.395 19.8949 119.395 20.1356V26.1785C119.395 26.5852 119.723 26.9131 120.13 26.9131C120.537 26.9131 120.864 26.5852 120.864 26.1785V20.5174L127.285 16.0227C127.505 16.1347 127.75 16.2011 128.015 16.2011C128.887 16.2011 129.593 15.4956 129.593 14.624C129.593 13.7524 128.887 13.0469 128.015 13.0469C127.144 13.0469 126.438 13.7524 126.438 14.624C126.438 14.6904 126.443 14.7527 126.451 14.8191L119.711 19.538L119.707 19.5338Z" fill="url(#paint0_linear_798_41470)"/>
<path d="M115.15 17.9275V23.9455C114.647 24.2111 114.307 24.7341 114.307 25.3441C114.307 26.2157 115.013 26.9213 115.884 26.9213C116.756 26.9213 117.461 26.2157 117.461 25.3441C117.461 24.7382 117.117 24.2111 116.615 23.9455V18.3094L126.106 11.6647C126.301 11.5277 126.418 11.3036 126.418 11.0629V6.5764C126.418 6.16967 126.09 5.8418 125.683 5.8418C125.276 5.8418 124.948 6.16967 124.948 6.5764V10.6811L115.457 17.3257C115.262 17.4627 115.145 17.6868 115.145 17.9275H115.15Z" fill="url(#paint1_linear_798_41470)"/>
<path d="M126.53 19.941L124.106 21.6384C123.774 21.8709 123.695 22.3274 123.928 22.6594C124.069 22.8628 124.297 22.9707 124.529 22.9707C124.675 22.9707 124.82 22.9292 124.949 22.8379L127.372 21.1404C127.704 20.908 127.783 20.4515 127.551 20.1194C127.318 19.7874 126.862 19.7085 126.53 19.941Z" fill="url(#paint2_linear_798_41470)"/>
<path d="M131.157 24.2072C130.921 23.871 130.456 23.788 130.116 24.0246L118.661 32.043L107.206 24.0246C106.87 23.788 106.401 23.871 106.164 24.2072C105.928 24.5475 106.011 25.0123 106.347 25.2489L117.353 32.9561L114.129 35.2138C113.909 35.1018 113.66 35.0354 113.394 35.0354C112.506 35.0354 111.788 35.7534 111.788 36.6415C111.788 37.5297 112.506 38.2477 113.394 38.2477C114.282 38.2477 115 37.5297 115 36.6415C115 36.5751 114.996 36.5046 114.988 36.4382L118.661 33.8691L122.334 36.4382C122.325 36.5046 122.321 36.571 122.321 36.6415C122.321 37.5297 123.039 38.2477 123.927 38.2477C124.816 38.2477 125.534 37.5297 125.534 36.6415C125.534 35.7534 124.816 35.0354 123.927 35.0354C123.662 35.0354 123.413 35.1018 123.193 35.2138L119.968 32.9561L130.975 25.2489C131.311 25.0123 131.394 24.5475 131.157 24.2072Z" fill="url(#paint3_linear_798_41470)"/>
<path d="M110.792 6.83833L113.216 5.14085C113.548 4.90843 113.626 4.45189 113.394 4.11987C113.253 3.9165 113.025 3.80859 112.792 3.80859C112.647 3.80859 112.502 3.8501 112.373 3.9414L109.949 5.63888C109.617 5.8713 109.538 6.32784 109.771 6.65986C110.003 6.99189 110.46 7.07074 110.792 6.83833Z" fill="url(#paint4_linear_798_41470)"/>
<path d="M120.707 4.43086V8.46912L111.215 15.1138C111.02 15.2507 110.904 15.4749 110.904 15.7156V20.2021C110.904 20.6088 111.232 20.9367 111.638 20.9367C112.045 20.9367 112.373 20.6088 112.373 20.2021V16.0974L121.865 9.45274C122.06 9.31578 122.176 9.09167 122.176 8.85095V4.43086C122.678 4.16524 123.018 3.6423 123.018 3.0322C123.018 2.16063 122.313 1.45508 121.441 1.45508C120.57 1.45508 119.864 2.16063 119.864 3.0322C119.864 3.63815 120.209 4.16524 120.711 4.43086H120.707Z" fill="url(#paint5_linear_798_41470)"/>
<path d="M109.31 13.7354C110.181 13.7354 110.887 13.0298 110.887 12.1583C110.887 12.0919 110.883 12.0296 110.875 11.9632L117.615 7.24429C117.81 7.10732 117.926 6.88321 117.926 6.64249V2.1975C117.926 1.79077 117.598 1.46289 117.191 1.46289C116.785 1.46289 116.457 1.79077 116.457 2.1975V6.26066L110.036 10.7596C109.816 10.6475 109.571 10.5811 109.306 10.5811C108.434 10.5811 107.729 11.2867 107.729 12.1583C107.729 13.0298 108.434 13.7354 109.306 13.7354H109.31Z" fill="url(#paint6_linear_798_41470)"/>
<path d="M27.47 14.528V7.62598H29.7775C30.8234 7.62598 31.6576 7.9331 32.276 8.54735C32.8986 9.16159 33.2099 9.99996 33.2099 11.0583C33.2099 12.1166 32.8986 12.9757 32.2719 13.5983C31.6452 14.2208 30.8151 14.5321 29.7775 14.5321H27.47V14.528ZM29.7402 8.82957H28.8811V13.3244H29.7402C31.0807 13.3244 31.7531 12.569 31.7531 11.0583C31.7531 9.54757 31.0807 8.82957 29.7402 8.82957Z" fill="#2D2766"/>
<path d="M34.9156 8.82175C34.6666 8.82175 34.4716 8.7512 34.3346 8.61423C34.1976 8.47727 34.1271 8.29051 34.1271 8.06224C34.1271 7.83397 34.1976 7.64721 34.3346 7.51025C34.4716 7.37329 34.6666 7.30273 34.9156 7.30273C35.1647 7.30273 35.3514 7.37329 35.4884 7.51025C35.6253 7.64721 35.6959 7.83397 35.6959 8.06224C35.6959 8.29051 35.6253 8.47727 35.4884 8.61423C35.3514 8.7512 35.1605 8.82175 34.9156 8.82175ZM35.5963 9.4941V14.5326H34.235V9.4941H35.5963Z" fill="#2D2766"/>
<path d="M38.7713 16.4039C38.1197 16.4039 37.547 16.3002 37.0448 16.0968L37.3312 15.0219C37.7379 15.1879 38.1903 15.2667 38.6925 15.2667C39.0784 15.2667 39.3814 15.1879 39.5931 15.0302C39.8048 14.8725 39.9127 14.6442 39.9127 14.3495V14.1213C39.6014 14.2416 39.2943 14.2997 38.9871 14.2997C38.2484 14.2997 37.6756 14.0964 37.2565 13.6855C36.8373 13.2746 36.6298 12.6977 36.6298 11.9548C36.6298 11.1662 36.8746 10.5395 37.3602 10.0705C37.8458 9.60571 38.4891 9.36914 39.2943 9.36914C40.0164 9.36914 40.6763 9.50195 41.2657 9.76342V14.2126C41.2657 14.9015 41.0457 15.4411 40.6016 15.8229C40.1575 16.2089 39.5474 16.3998 38.7713 16.3998V16.4039ZM38.0201 11.8386C38.0201 12.2536 38.1239 12.5773 38.3314 12.8139C38.5389 13.0505 38.8294 13.1667 39.203 13.1667C39.4395 13.1667 39.6761 13.1127 39.9127 13.0007V10.6059C39.6844 10.5354 39.4769 10.498 39.2901 10.498C38.8875 10.498 38.5763 10.6184 38.3521 10.8633C38.128 11.1081 38.016 11.4318 38.016 11.8386H38.0201Z" fill="#2D2766"/>
<path d="M43.2578 8.82175C43.0088 8.82175 42.8137 8.7512 42.6768 8.61423C42.5398 8.47727 42.4692 8.29051 42.4692 8.06224C42.4692 7.83397 42.5398 7.64721 42.6768 7.51025C42.8137 7.37329 43.0088 7.30273 43.2578 7.30273C43.5068 7.30273 43.6936 7.37329 43.8305 7.51025C43.9675 7.64721 44.0381 7.83397 44.0381 8.06224C44.0381 8.29051 43.9675 8.47727 43.8305 8.61423C43.6936 8.7512 43.5027 8.82175 43.2578 8.82175ZM43.9385 9.4941V14.5326H42.5771V9.4941H43.9385Z" fill="#2D2766"/>
<path d="M48.039 14.558C47.8024 14.6161 47.5161 14.6452 47.1799 14.6452C45.997 14.6452 45.4036 13.9977 45.4036 12.7028V10.5737H44.7312V9.49046H45.4036V8.39477L46.7649 8.32422V9.48631H47.8605V10.5695H46.7649V12.6779C46.7649 13.2382 46.9931 13.5163 47.4455 13.5163C47.624 13.5163 47.7983 13.4955 47.9684 13.4582L48.039 14.5538V14.558Z" fill="#2D2766"/>
<path d="M52.7247 14.2123C52.1602 14.5028 51.4422 14.6481 50.5748 14.6481C49.9232 14.6481 49.421 14.5028 49.0724 14.2206C48.7196 13.9342 48.5453 13.5607 48.5453 13.1C48.5453 12.6393 48.7279 12.2409 49.089 11.967C49.4501 11.6889 49.9315 11.5478 50.5291 11.5437C50.7865 11.5437 51.077 11.5686 51.4049 11.6225V11.386C51.4049 10.7925 51.0687 10.4978 50.4005 10.4978C49.9149 10.4978 49.4791 10.5766 49.0973 10.7344L48.8524 9.66772C49.3256 9.4685 49.8941 9.37305 50.5582 9.37305C51.2762 9.37305 51.8157 9.55566 52.181 9.91674C52.5462 10.2778 52.7288 10.7966 52.7288 11.4731V14.2165L52.7247 14.2123ZM50.7118 13.6686C51.0023 13.6686 51.2305 13.623 51.4007 13.5317V12.4775C51.1558 12.4235 50.9234 12.3986 50.6993 12.3986C50.1598 12.3986 49.89 12.6144 49.89 13.0378C49.89 13.4611 50.1639 13.6686 50.7076 13.6686H50.7118Z" fill="#2D2766"/>
<path d="M55.2897 7.38184V12.7067C55.2897 13.2504 55.4681 13.5243 55.8209 13.5243C55.9246 13.5243 56.0201 13.516 56.1073 13.4953L56.2069 14.5702C55.9578 14.6241 55.7254 14.649 55.5179 14.649C54.4596 14.649 53.9325 14.0099 53.9325 12.7274V7.46069L55.2938 7.38184H55.2897Z" fill="#2D2766"/>
<path d="M6.80142 25.9376C6.09586 26.2987 5.36956 26.4813 4.6225 26.4813C3.55587 26.4813 2.7258 26.1659 2.12401 25.5309C1.52221 24.8959 1.22339 24.0492 1.22339 22.9909C1.22339 21.9326 1.53051 21.0195 2.14891 20.3471C2.76731 19.6748 3.60982 19.3428 4.68475 19.3428C5.38201 19.3428 6.00456 19.4631 6.55655 19.6955L6.24112 20.8784C5.75969 20.6833 5.2492 20.5837 4.70136 20.5837C4.0373 20.5837 3.53512 20.7954 3.19064 21.2187C2.85031 21.642 2.676 22.2314 2.676 22.9909C2.676 23.7006 2.84616 24.2526 3.19064 24.6469C3.53097 25.0412 4.029 25.2404 4.6806 25.2404C4.95868 25.2404 5.23675 25.2072 5.51897 25.1408V23.6135H4.38593V22.4514H6.80142V25.9418V25.9376Z" fill="#2D2766"/>
<path d="M12.6285 23.8376C12.6285 24.6386 12.4085 25.2819 11.9686 25.7592C11.5286 26.2406 10.931 26.4772 10.1756 26.4772C9.42026 26.4772 8.81846 26.2365 8.37438 25.7509C7.93029 25.2695 7.71033 24.6303 7.71033 23.8335C7.71033 23.0366 7.93029 22.4016 8.37438 21.9202C8.81846 21.4387 9.41611 21.2021 10.1756 21.2021C10.9351 21.2021 11.5286 21.4429 11.9686 21.9202C12.4085 22.4016 12.6285 23.0366 12.6285 23.8335V23.8376ZM9.09653 23.8376C9.09653 24.3107 9.19199 24.6843 9.37876 24.9499C9.56552 25.2197 9.83114 25.3525 10.1715 25.3525C10.5118 25.3525 10.7774 25.2197 10.96 24.9499C11.1426 24.6801 11.2381 24.3107 11.2381 23.8376C11.2381 23.3645 11.1468 22.9951 10.96 22.7295C10.7774 22.4638 10.5118 22.331 10.1715 22.331C9.83114 22.331 9.56552 22.4638 9.37876 22.7336C9.19199 23.0034 9.09653 23.3728 9.09653 23.8376Z" fill="#2D2766"/>
<path d="M13.2385 21.3223H14.6081C14.6994 22.7707 15.0439 24.0822 15.6457 25.2651C15.9528 24.6674 16.1977 24.0615 16.372 23.4472C16.5463 22.833 16.6542 22.1233 16.6916 21.3223H18.0529C17.9533 22.31 17.7831 23.1692 17.5383 23.9121C17.2934 24.6508 16.9157 25.4684 16.4052 26.3608H14.8945C14.355 25.4518 13.9607 24.6301 13.7158 23.8955C13.4709 23.1609 13.3091 22.3017 13.2385 21.3223Z" fill="#2D2766"/>
<path d="M22.9836 26.1452C22.4897 26.3693 21.9169 26.4814 21.257 26.4814C20.456 26.4814 19.8086 26.2448 19.3188 25.7675C18.8291 25.2902 18.5842 24.6469 18.5842 23.8376C18.5842 23.0283 18.8125 22.4223 19.2649 21.9326C19.7173 21.447 20.3066 21.2021 21.0288 21.2021C21.6721 21.2021 22.1909 21.4097 22.581 21.8247C22.9711 22.2397 23.1662 22.7793 23.1662 23.4433C23.1662 23.6799 23.1537 23.9289 23.1247 24.1945H20.0078C20.1323 24.9582 20.593 25.34 21.3898 25.34C21.8505 25.34 22.3071 25.2446 22.7594 25.0536L22.9753 26.1493L22.9836 26.1452ZM21.0329 22.2895C20.7507 22.2895 20.5183 22.385 20.3357 22.5759C20.153 22.7668 20.041 23.0283 19.9953 23.3645H21.8671V23.2441C21.8671 22.9619 21.7924 22.7295 21.6472 22.5552C21.4978 22.3767 21.2944 22.2895 21.0288 22.2895H21.0329Z" fill="#2D2766"/>
<path d="M24.2037 21.6379C24.7806 21.3474 25.4737 21.2021 26.2747 21.2021C26.6275 21.2021 26.9263 21.2312 27.1629 21.2893L26.9678 22.4016C26.8184 22.3476 26.6234 22.3227 26.3868 22.3227C26.0797 22.3227 25.8058 22.3808 25.5692 22.4887V26.3527H24.2079V21.6296L24.2037 21.6379Z" fill="#2D2766"/>
<path d="M29.2838 26.3649H27.9308V21.6418C28.6073 21.3513 29.3502 21.2061 30.1595 21.2061C30.8817 21.2061 31.442 21.3804 31.8362 21.729C32.2305 22.0776 32.4297 22.5757 32.4297 23.2273V26.3649H31.0684V23.3269C31.0684 22.6628 30.7613 22.3308 30.1512 22.3308C29.8275 22.3308 29.5411 22.3889 29.2838 22.5093V26.3649Z" fill="#2D2766"/>
<path d="M35.0237 22.5093V26.3649H33.6707V21.6418C34.3347 21.3513 35.0735 21.2061 35.8911 21.2061C36.468 21.2061 36.9328 21.3389 37.2814 21.6086C37.821 21.3389 38.3564 21.2061 38.8876 21.2061C39.5849 21.2061 40.1202 21.3804 40.4979 21.7331C40.8756 22.0859 41.0665 22.584 41.0665 23.2273V26.3649H39.7135V23.3269C39.7135 22.6628 39.4188 22.3308 38.8253 22.3308C38.4975 22.3308 38.1904 22.4096 37.9081 22.5674C37.987 22.8371 38.0285 23.1443 38.0285 23.4929V26.3608H36.7087V23.3227C36.7087 22.9865 36.6381 22.7375 36.497 22.5715C36.3559 22.4055 36.1318 22.3266 35.8205 22.3266C35.5424 22.3266 35.2768 22.3847 35.0237 22.5051V22.5093Z" fill="#2D2766"/>
<path d="M46.4412 26.1452C45.9473 26.3693 45.3746 26.4814 44.7147 26.4814C43.9137 26.4814 43.2662 26.2448 42.7765 25.7675C42.2867 25.2902 42.0419 24.6469 42.0419 23.8376C42.0419 23.0283 42.2701 22.4223 42.7225 21.9326C43.1749 21.447 43.7643 21.2021 44.4864 21.2021C45.1297 21.2021 45.6485 21.4097 46.0386 21.8247C46.4288 22.2397 46.6238 22.7793 46.6238 23.4433C46.6238 23.6799 46.6114 23.9289 46.5823 24.1945H43.4654C43.5899 24.9582 44.0506 25.34 44.8475 25.34C45.3082 25.34 45.7647 25.2446 46.2171 25.0536L46.4329 26.1493L46.4412 26.1452ZM44.4906 22.2895C44.2083 22.2895 43.9759 22.385 43.7933 22.5759C43.6107 22.7668 43.4986 23.0283 43.453 23.3645H45.3248V23.2441C45.3248 22.9619 45.2501 22.7295 45.1048 22.5552C44.9554 22.3767 44.752 22.2895 44.4864 22.2895H44.4906Z" fill="#2D2766"/>
<path d="M49.006 26.3649H47.653V21.6418C48.3295 21.3513 49.0724 21.2061 49.8817 21.2061C50.6038 21.2061 51.1641 21.3804 51.5584 21.729C51.9527 22.0776 52.1519 22.5757 52.1519 23.2273V26.3649H50.7906V23.3269C50.7906 22.6628 50.4835 22.3308 49.8734 22.3308C49.5497 22.3308 49.2633 22.3889 49.006 22.5093V26.3649Z" fill="#2D2766"/>
<path d="M56.186 26.3939C55.9494 26.452 55.663 26.4811 55.3269 26.4811C54.144 26.4811 53.5505 25.8336 53.5505 24.5387V22.4096H52.8782V21.3264H53.5505V20.2307L54.9118 20.1602V21.3222H56.0075V22.4055H54.9118V24.5138C54.9118 25.0741 55.1401 25.3522 55.5925 25.3522C55.7709 25.3522 55.9453 25.3315 56.1154 25.2941L56.186 26.3898V26.3939Z" fill="#2D2766"/>
<path d="M18.8706 38.1979L18.4556 36.6789H15.9115C15.7745 37.1395 15.6334 37.6459 15.4964 38.1979H14.048C14.8365 35.3134 15.6334 33.01 16.4427 31.2959H17.9119C18.7461 33.0639 19.5471 35.3674 20.3191 38.1979H18.8706ZM17.1856 32.7942C16.949 33.3088 16.6419 34.2011 16.2601 35.4753H18.1028C17.7086 34.1555 17.4014 33.259 17.1856 32.7942Z" fill="#2D2766"/>
<path d="M25.5361 37.8822C24.8347 38.1728 24.0834 38.318 23.2866 38.318C22.4897 38.318 21.9211 38.1354 21.5808 37.7702C21.2405 37.405 21.0662 36.8862 21.0662 36.2055V33.1592H22.4192V36.2055C22.4192 36.8613 22.718 37.1933 23.3156 37.1933C23.6394 37.1933 23.9257 37.1352 24.1748 37.0148V33.1592H25.5361V37.8822Z" fill="#2D2766"/>
<path d="M29.6199 38.2269C29.3834 38.285 29.097 38.3141 28.7608 38.3141C27.578 38.3141 26.9845 37.6667 26.9845 36.3718V34.2426H26.3121V33.1594H26.9845V32.0637L28.3458 31.9932V33.1553H29.4415V34.2385H28.3458V36.351C28.3458 36.9113 28.5741 37.1894 29.0264 37.1894C29.2049 37.1894 29.3792 37.1686 29.5494 37.1313L29.6199 38.2269Z" fill="#2D2766"/>
<path d="M31.8196 38.1979H30.4583V31.1174L31.8196 31.0469V33.2341C32.0976 33.1013 32.4338 33.0349 32.8364 33.0349C33.488 33.0349 34.0026 33.2092 34.3845 33.562C34.7663 33.9147 34.9572 34.4128 34.9572 35.0561V38.1937H33.5959V35.1681C33.5959 34.5041 33.2722 34.1721 32.6206 34.1721C32.3508 34.1721 32.0852 34.2343 31.8237 34.3588V38.1937L31.8196 38.1979Z" fill="#2D2766"/>
<path d="M40.8507 35.6735C40.8507 36.4745 40.6308 37.1178 40.1908 37.5951C39.7509 38.0766 39.1533 38.3131 38.3979 38.3131C37.6425 38.3131 37.0408 38.0724 36.5967 37.5868C36.1526 37.1012 35.9326 36.4621 35.9326 35.6694C35.9326 34.8767 36.1526 34.2375 36.5967 33.7561C37.0408 33.2747 37.6384 33.0381 38.3979 33.0381C39.1574 33.0381 39.7509 33.2788 40.1908 33.7561C40.6308 34.2375 40.8507 34.8725 40.8507 35.6694V35.6735ZM37.3188 35.6735C37.3188 36.1467 37.4143 36.5202 37.601 36.7858C37.7878 37.0556 38.0534 37.1884 38.3938 37.1884C38.7341 37.1884 38.9997 37.0556 39.1823 36.7858C39.3649 36.5161 39.4604 36.1467 39.4604 35.6735C39.4604 35.2004 39.3691 34.831 39.1823 34.5654C38.9997 34.2998 38.7341 34.167 38.3938 34.167C38.0534 34.167 37.7878 34.2998 37.601 34.5696C37.4143 34.8393 37.3188 35.2087 37.3188 35.6735Z" fill="#2D2766"/>
<path d="M41.8883 33.4739C42.4652 33.1833 43.1583 33.0381 43.9593 33.0381C44.3121 33.0381 44.6109 33.0671 44.8475 33.1252L44.6524 34.2375C44.503 34.1836 44.3079 34.1587 44.0714 34.1587C43.7643 34.1587 43.4903 34.2126 43.2538 34.3247V38.1886H41.8925V33.4656L41.8883 33.4739Z" fill="#2D2766"/>
<path d="M46.3042 32.4868C46.0552 32.4868 45.8601 32.4162 45.7231 32.2793C45.5862 32.1423 45.5156 31.9555 45.5156 31.7273C45.5156 31.499 45.5862 31.3122 45.7231 31.1753C45.8601 31.0383 46.0552 30.9678 46.3042 30.9678C46.5532 30.9678 46.74 31.0383 46.8769 31.1753C47.0139 31.3122 47.0844 31.499 47.0844 31.7273C47.0844 31.9555 47.0139 32.1423 46.8769 32.2793C46.74 32.4162 46.5491 32.4868 46.3042 32.4868ZM46.9848 33.1591V38.1976H45.6235V33.1591H46.9848Z" fill="#2D2766"/>
<path d="M51.0853 38.2269C50.8487 38.285 50.5623 38.3141 50.2262 38.3141C49.0433 38.3141 48.4498 37.6667 48.4498 36.3718V34.2426H47.7775V33.1594H48.4498V32.0637L49.8111 31.9932V33.1553H50.9068V34.2385H49.8111V36.351C49.8111 36.9113 50.0394 37.1894 50.4918 37.1894C50.6702 37.1894 50.8446 37.1686 51.0147 37.1313L51.0853 38.2269Z" fill="#2D2766"/>
<path d="M54.7335 37.7621C53.9781 39.0902 53.0318 39.8456 51.8946 40.0282L51.6788 38.8744C51.9818 38.8288 52.2848 38.7167 52.5919 38.5341C52.899 38.3515 53.1231 38.1398 53.2684 37.8991C52.7164 37.1479 52.3014 36.405 52.0192 35.6704C51.7411 34.9358 51.5626 34.0974 51.4921 33.1553H52.8617C52.9156 34.4751 53.285 35.7119 53.974 36.8615C54.2354 36.3012 54.4346 35.7492 54.5592 35.2014C54.6878 34.6535 54.7708 33.9687 54.8123 33.1553H56.1653C56.045 34.7448 55.5718 36.2805 54.7376 37.7621H54.7335Z" fill="#2D2766"/>
<path d="M66.6408 14.5875H66.1261C65.3832 14.5875 64.8893 14.3302 64.6486 13.8197C64.3207 13.8571 64.0178 13.8778 63.7397 13.8778C63.0632 13.8778 62.5278 13.7533 62.1377 13.5043C61.7476 13.2553 61.5525 12.8776 61.5525 12.3713C61.5525 11.7861 61.7393 11.2673 62.1128 10.819C62.4863 10.3708 62.9719 10.0305 63.5737 9.80636C64.1713 9.58224 64.8312 9.47018 65.5451 9.47018V12.3588C65.5451 12.6742 65.6157 12.89 65.7568 12.998C65.8979 13.11 66.151 13.164 66.5204 13.164H66.6408V14.5834V14.5875ZM63.9804 12.6369C64.1755 12.6369 64.3291 12.6286 64.4328 12.6161V10.8232C63.8891 10.8937 63.445 11.0556 63.1047 11.3046C62.7644 11.5536 62.5984 11.8027 62.5984 12.0434C62.5984 12.2135 62.7187 12.3547 62.9553 12.4667C63.1919 12.5788 63.5322 12.6327 63.9804 12.6327V12.6369ZM64.8395 8.88913L64.051 8.22923L63.4409 8.91819L62.6108 8.22923L63.2998 7.43237L64.0883 8.11302L64.6984 7.40332L65.5285 8.11302L64.8395 8.89328V8.88913Z" fill="#2D2766"/>
<path d="M66.6407 14.5874C66.5536 14.5874 66.483 14.5168 66.4208 14.3799C66.3585 14.2429 66.3253 14.0727 66.3253 13.8777C66.3253 13.6826 66.3585 13.5124 66.4208 13.3755C66.483 13.2385 66.5577 13.168 66.6407 13.168H68.9981V14.5874H66.6407Z" fill="#2D2766"/>
<path d="M68.998 14.5874C68.9109 14.5874 68.8403 14.5168 68.7781 14.3799C68.7158 14.2429 68.6826 14.0727 68.6826 13.8777C68.6826 13.6826 68.7158 13.5124 68.7781 13.3755C68.8403 13.2385 68.915 13.168 68.998 13.168H71.3554V14.5874H68.998Z" fill="#2D2766"/>
<path d="M71.3555 14.5875C71.2683 14.5875 71.1977 14.517 71.1355 14.38C71.0732 14.2431 71.04 14.0729 71.04 13.8778C71.04 13.6828 71.0732 13.5126 71.1355 13.3756C71.1977 13.2387 71.2725 13.1681 71.3555 13.1681H71.5049C72.0361 13.1681 72.3889 13.0976 72.5632 12.9606C72.7375 12.8236 72.8247 12.6203 72.8247 12.3588V10.9768L74.0075 10.8896V12.2302C74.0075 12.5124 73.9868 12.7697 73.9494 12.998C74.3063 13.11 74.7338 13.164 75.2319 13.164H75.29V14.5834H75.0243C74.3063 14.5834 73.7419 14.434 73.3269 14.131C72.9575 14.434 72.393 14.5834 71.6294 14.5834H71.3513L71.3555 14.5875ZM74.0573 10.0429C73.3352 10.1674 72.6089 10.3708 71.8784 10.653L71.6916 10.072C71.9697 9.95163 72.1814 9.86862 72.3308 9.81467C72.0735 9.6362 71.9448 9.37058 71.9448 9.01781C71.9448 8.71483 72.0444 8.47411 72.2436 8.2998C72.4428 8.12134 72.6877 8.03418 72.9782 8.03418C73.2688 8.03418 73.5219 8.10059 73.7875 8.22925L73.58 8.78124C73.3891 8.72313 73.2107 8.69408 73.0488 8.69408C72.9035 8.69408 72.7873 8.72728 72.6919 8.79369C72.6006 8.86009 72.5549 8.9514 72.5549 9.07176C72.5549 9.20457 72.6006 9.31663 72.6919 9.41209C72.7832 9.50754 72.9201 9.5532 73.0944 9.5532C73.2397 9.5532 73.5178 9.51169 73.9328 9.42454L74.0532 10.0471L74.0573 10.0429Z" fill="#2D2766"/>
<path d="M75.29 14.5874C75.2029 14.5874 75.1323 14.5168 75.0701 14.3799C75.0078 14.2429 74.9746 14.0727 74.9746 13.8777C74.9746 13.6826 75.0078 13.5124 75.0701 13.3755C75.1323 13.2385 75.207 13.168 75.29 13.168H77.6474V14.5874H75.29Z" fill="#2D2766"/>
<path d="M77.6473 14.5874C77.5602 14.5874 77.4896 14.5168 77.4274 14.3799C77.3651 14.2429 77.3319 14.0727 77.3319 13.8777C77.3319 13.6826 77.3651 13.5124 77.4274 13.3755C77.4896 13.2385 77.5643 13.168 77.6473 13.168H80.0047V14.5874H77.6473Z" fill="#2D2766"/>
<path d="M81.7812 16.8454L80.9927 16.1855L80.3826 16.8744L79.5525 16.1855L80.2414 15.3886L81.03 16.0692L81.6401 15.3595L82.4702 16.0692L81.7812 16.8495V16.8454ZM80.0049 14.5876C79.9177 14.5876 79.8472 14.517 79.7849 14.3801C79.7227 14.2431 79.6895 14.0729 79.6895 13.8779C79.6895 13.6828 79.7227 13.5127 79.7849 13.3757C79.8472 13.2387 79.9219 13.1682 80.0049 13.1682H80.1543C80.6855 13.1682 81.0383 13.0976 81.2126 12.9607C81.3869 12.8237 81.4741 12.6203 81.4741 12.3589V10.9768L82.6569 10.8896V12.2302C82.6569 12.5124 82.6362 12.7697 82.5988 12.998C82.9558 13.1101 83.3832 13.164 83.8813 13.164H83.9394V14.5834H83.6738C82.9558 14.5834 82.3913 14.434 81.9763 14.131C81.6069 14.434 81.0425 14.5834 80.2788 14.5834H80.0007L80.0049 14.5876Z" fill="#2D2766"/>
<path d="M83.9392 14.5874C83.8521 14.5874 83.7815 14.5168 83.7192 14.3799C83.657 14.2429 83.6238 14.0727 83.6238 13.8777C83.6238 13.6826 83.657 13.5124 83.7192 13.3755C83.7815 13.2385 83.8562 13.168 83.9392 13.168H86.2966V14.5874H83.9392Z" fill="#2D2766"/>
<path d="M86.2966 14.5874C86.2095 14.5874 86.1389 14.5168 86.0767 14.3799C86.0144 14.2429 85.9812 14.0727 85.9812 13.8777C85.9812 13.6826 86.0144 13.5124 86.0767 13.3755C86.1389 13.2385 86.2136 13.168 86.2966 13.168H88.654V14.5874H86.2966Z" fill="#2D2766"/>
<path d="M88.6542 14.5874C88.567 14.5874 88.4965 14.5168 88.4342 14.3799C88.372 14.2429 88.3387 14.0727 88.3387 13.8777C88.3387 13.6826 88.372 13.5124 88.4342 13.3755C88.4965 13.2385 88.5712 13.168 88.6542 13.168H91.0116V14.5874H88.6542Z" fill="#2D2766"/>
<path d="M95.8714 14.903C94.9625 14.903 94.0909 14.6747 93.2484 14.214C92.6964 14.463 92.0323 14.5876 91.2562 14.5876H91.0113C90.9242 14.5876 90.8536 14.517 90.7914 14.38C90.7291 14.2431 90.6959 14.0729 90.6959 13.8779C90.6959 13.6828 90.7291 13.5126 90.7914 13.3757C90.8536 13.2387 90.9283 13.1682 91.0113 13.1682H91.14C91.4305 13.1682 91.7294 13.1515 92.0365 13.1183C91.8705 12.8278 91.7916 12.5249 91.7916 12.2011C91.7916 11.3213 92.2274 10.4289 93.1031 9.52832C94.2195 9.74414 95.1575 10.1924 95.917 10.8647C96.6765 11.5371 97.0542 12.3132 97.0542 13.1889C97.0542 14.3344 96.6599 14.903 95.8714 14.903ZM92.7752 11.9563C92.7752 12.3049 92.9744 12.6037 93.3687 12.8527C93.651 12.7033 93.8668 12.5373 94.0079 12.3588C94.1531 12.1804 94.2237 12.0185 94.2237 11.8774C94.2237 11.396 93.8875 11.0722 93.2193 10.9021C92.9246 11.2632 92.7752 11.6159 92.7752 11.9563ZM95.7344 13.6828C95.917 13.6828 96.0125 13.5956 96.0125 13.4255C96.0125 12.8278 95.7178 12.2675 95.1243 11.7487V11.757C95.1243 12.3298 94.8836 12.8652 94.4063 13.3632C94.9791 13.5749 95.4231 13.6786 95.7386 13.6786L95.7344 13.6828Z" fill="#2D2766"/>
<path d="M66.5661 26.4205H66.0514C65.3085 26.4205 64.8146 26.1632 64.5739 25.6527C64.246 25.6901 63.9431 25.7108 63.665 25.7108C62.9885 25.7108 62.4531 25.5863 62.063 25.3373C61.6728 25.0883 61.4778 24.7106 61.4778 24.2043C61.4778 23.6191 61.6646 23.1003 62.0381 22.652C62.4116 22.2038 62.8972 21.8635 63.499 21.6394C64.0966 21.4152 64.7565 21.3032 65.4704 21.3032V24.1918C65.4704 24.5072 65.5409 24.723 65.6821 24.831C65.8232 24.943 66.0763 24.997 66.4457 24.997H66.5661V26.4164V26.4205ZM63.9057 24.4699C64.1008 24.4699 64.2543 24.4616 64.3581 24.4491V22.6562C63.8144 22.7267 63.3703 22.8886 63.03 23.1376C62.6897 23.3866 62.5237 23.6357 62.5237 23.8764C62.5237 24.0465 62.644 24.1877 62.8806 24.2997C63.1172 24.4118 63.4575 24.4657 63.9057 24.4657V24.4699ZM64.7648 20.7221L63.9763 20.0622L63.3662 20.7512L62.5361 20.0622L63.2251 19.2654L64.0136 19.946L64.6237 19.2363L65.4538 19.946L64.7648 20.7263V20.7221Z" fill="#2D2766"/>
<path d="M66.566 26.4204C66.4789 26.4204 66.4083 26.3498 66.3461 26.2129C66.2838 26.0759 66.2506 25.9057 66.2506 25.7107C66.2506 25.5156 66.2838 25.3455 66.3461 25.2085C66.4083 25.0715 66.483 25.001 66.566 25.001H68.9234V26.4204H66.566Z" fill="#2D2766"/>
<path d="M72.2562 26.4286C71.4676 26.4286 70.7869 26.2626 70.2142 25.9347C69.8905 26.2585 69.4879 26.4162 69.0023 26.4162H68.9235C68.8363 26.4162 68.7657 26.3456 68.7035 26.2087C68.6412 26.0717 68.608 25.9015 68.608 25.7065C68.608 25.5114 68.6412 25.3413 68.7035 25.2043C68.7657 25.0673 68.8404 24.9968 68.9235 24.9968H69.0895C69.3385 24.9968 69.5419 24.9055 69.6954 24.7187C69.849 24.5319 70.0274 24.2373 70.235 23.8222C70.2474 23.7973 70.2599 23.7766 70.264 23.7641C70.2682 23.7517 70.2806 23.7351 70.2889 23.7143C70.2972 23.6936 70.3055 23.677 70.3138 23.6562C70.5711 23.1623 70.8451 22.7888 71.1356 22.5315C71.4261 22.2742 71.8287 22.1455 72.335 22.1455C72.8953 22.1455 73.3477 22.3655 73.6963 22.8054C74.0449 23.2453 74.2193 23.789 74.2193 24.4323C74.2193 25.0756 74.1072 25.6899 73.8831 26.2087C73.4681 26.3539 72.9285 26.4245 72.2562 26.4245V26.4286ZM72.4844 25.1254C72.6878 25.1254 72.887 25.1171 73.0862 25.0964C73.1111 24.9179 73.1236 24.7561 73.1236 24.6025C73.1236 24.2622 73.053 23.9799 72.9078 23.76C72.7625 23.54 72.5591 23.428 72.2977 23.428C72.0528 23.428 71.8494 23.511 71.6751 23.6811C71.505 23.8471 71.2891 24.1916 71.0235 24.7104C70.9779 24.8017 70.953 24.8598 70.9447 24.8764C71.3721 25.0424 71.8868 25.1213 72.4844 25.1213V25.1254Z" fill="#2D2766"/>
<path d="M76.2486 28.5084C75.9083 28.5084 75.5472 28.4586 75.1654 28.359L75.2858 27.1845C75.5348 27.2301 75.8004 27.255 76.0743 27.255C76.6512 27.255 77.1119 27.1513 77.4564 26.9396C77.8009 26.7279 78.0167 26.4914 78.1163 26.2299C77.8341 26.2631 77.4896 26.2797 77.0912 26.2797C76.3814 26.2797 75.8834 26.1137 75.597 25.7817C75.3107 25.4496 75.1696 24.9931 75.1696 24.4162C75.1696 23.7314 75.3563 23.1545 75.7381 22.6814C76.1158 22.2082 76.5931 21.9717 77.1617 21.9717C77.7843 21.9717 78.2989 22.2415 78.7056 22.781C79.1082 23.3205 79.324 24.0593 79.3406 25.0014H79.9134V26.4208H79.1829C78.8011 27.8153 77.8258 28.5126 76.2528 28.5126L76.2486 28.5084ZM77.5103 24.9973H78.22C78.1993 24.5615 78.0914 24.163 77.888 23.7937C77.6888 23.4243 77.419 23.2417 77.0829 23.2417C76.8048 23.2417 76.5973 23.3413 76.452 23.5364C76.3067 23.7314 76.2362 23.9555 76.2362 24.2087C76.2362 24.4619 76.3316 24.6611 76.5267 24.7939C76.7218 24.9267 77.0496 24.9973 77.5062 24.9973H77.5103Z" fill="#2D2766"/>
<path d="M79.9053 26.4208C79.8181 26.4208 79.7476 26.3502 79.6853 26.2133C79.6231 26.0763 79.5898 25.9061 79.5898 25.7111C79.5898 25.516 79.6231 25.3458 79.6853 25.2089C79.7476 25.0719 79.8223 25.0014 79.9053 25.0014H80.092C81.2043 25.0014 82.0593 24.8976 82.6569 24.6859C82.3872 24.2377 82.0717 23.8434 81.7107 23.4989C81.3496 23.1545 80.8557 22.8473 80.2331 22.5776V20.9714C81.5073 20.0708 82.9433 19.4358 84.5329 19.0664V20.3987C83.3376 20.6892 82.2793 21.125 81.3662 21.7102C81.6899 21.8803 81.9763 22.0671 82.2336 22.2663C82.4909 22.4655 82.7233 22.6896 82.935 22.9387C83.1467 23.1835 83.2961 23.3744 83.3957 23.4989C83.4911 23.6276 83.624 23.8227 83.7941 24.0841C83.819 24.1298 83.873 24.2128 83.9477 24.329C84.0224 24.4494 84.0722 24.5241 84.1012 24.5614C84.1261 24.5988 84.1718 24.6569 84.2382 24.7357C84.3046 24.8146 84.3627 24.8644 84.4125 24.8893C84.4623 24.9142 84.5246 24.9391 84.5993 24.964C84.674 24.9889 84.757 25.0014 84.8525 25.0014H84.9811V26.4208H84.8234C84.2133 26.4208 83.736 26.2257 83.3915 25.8397C82.5781 26.2257 81.4907 26.4208 80.1377 26.4208H79.9094H79.9053Z" fill="#2D2766"/>
<path d="M84.9769 26.4201C84.8898 26.4201 84.8192 26.3495 84.757 26.2126C84.6947 26.0756 84.6615 25.9055 84.6615 25.7104C84.6615 25.5153 84.6947 25.3452 84.757 25.2082C84.8192 25.0712 84.8939 25.0007 84.9769 25.0007H85.3505C86.8902 25.0007 88.1104 24.9135 89.0193 24.7434C88.0274 23.7971 87.3509 23.324 86.9981 23.324C86.8487 23.324 86.7201 23.3572 86.6246 23.4277C86.5291 23.4983 86.4212 23.6311 86.3092 23.8261L85.4293 23.49C85.6202 22.9836 85.8485 22.6184 86.11 22.3901C86.3714 22.1619 86.6869 22.0498 87.0562 22.0498C87.5543 22.0498 88.2059 22.3984 89.0069 23.0957C89.1438 23.216 89.4966 23.5315 90.0611 24.0503C90.4969 24.4528 90.8289 24.7102 91.0613 24.8222C91.2937 24.9384 91.605 24.9965 91.991 24.9965H92.1404V26.4159H91.9329C91.5593 26.4159 91.2356 26.3661 90.9617 26.2707C90.6878 26.1752 90.4055 26.0092 90.1067 25.7726C88.5338 26.2001 86.8695 26.4118 85.1056 26.4118H84.9686L84.9769 26.4201Z" fill="#2D2766"/>
<path d="M92.1445 26.4203C92.0574 26.4203 91.9868 26.3497 91.9246 26.2128C91.8623 26.0758 91.8291 25.9056 91.8291 25.7106C91.8291 25.5155 91.8623 25.3454 91.9246 25.2084C91.9868 25.0714 92.0615 25.0009 92.1445 25.0009H92.2234C92.6094 25.0009 92.9663 24.9635 93.29 24.893C93.3149 24.4779 93.3274 23.9467 93.3274 23.2951C93.3274 22.353 93.3191 21.0498 93.2983 19.3813L94.56 19.2734C94.5683 21.0041 94.5683 22.2741 94.5683 23.0917C94.5683 23.8429 94.5517 24.424 94.5227 24.8432C94.4936 25.2623 94.4272 25.6359 94.3193 25.9638C94.091 26.0883 93.7756 26.1962 93.373 26.2875C92.9704 26.3788 92.5803 26.4244 92.1985 26.4244H92.1404L92.1445 26.4203Z" fill="#2D2766"/>
<path d="M96.9836 26.4196H95.7302V19.3765L96.9836 19.2686V26.4196Z" fill="#2D2766"/>
<path d="M66.7404 38.2526H66.2257C65.4828 38.2526 64.989 37.9952 64.7482 37.4848C64.4204 37.5263 64.1174 37.5429 63.8393 37.5429C63.1628 37.5429 62.6274 37.4183 62.2373 37.1693C61.8472 36.9203 61.6521 36.5426 61.6521 36.0363C61.6521 35.4511 61.8389 34.9323 62.2124 34.4841C62.5859 34.0358 63.0715 33.6955 63.6733 33.4714C64.2751 33.2473 64.9308 33.1352 65.6447 33.1352V36.0238C65.6447 36.3393 65.7153 36.5551 65.8564 36.663C65.9975 36.775 66.2506 36.829 66.62 36.829H66.7404V38.2484V38.2526ZM64.08 36.3019C64.2751 36.3019 64.4287 36.2936 64.5324 36.2812V34.4882C63.9887 34.5588 63.5446 34.7206 63.2043 34.9697C62.864 35.2187 62.698 35.4677 62.698 35.7084C62.698 35.8786 62.8183 36.0197 63.0549 36.1317C63.2915 36.2438 63.6318 36.2978 64.08 36.2978V36.3019ZM64.9392 32.5542L64.1506 31.8943L63.5405 32.5832L62.7104 31.8943L63.3994 31.0974L64.1879 31.7781L64.798 31.0684L65.6281 31.7781L64.9392 32.5583V32.5542Z" fill="#2D2766"/>
<path d="M66.7403 38.2524C66.6532 38.2524 66.5826 38.1819 66.5204 38.0449C66.4581 37.9079 66.4249 37.7378 66.4249 37.5427C66.4249 37.3476 66.4581 37.1775 66.5204 37.0405C66.5826 36.9036 66.6573 36.833 66.7403 36.833H69.0977V38.2524H66.7403Z" fill="#2D2766"/>
<path d="M70.8741 40.5104L70.0855 39.8505L69.4754 40.5394L68.6454 39.8505L69.3343 39.0536L70.1229 39.7343L70.733 39.0246L71.5631 39.7343L70.8741 40.5145V40.5104ZM69.0978 38.2526C69.0106 38.2526 68.9401 38.1821 68.8778 38.0451C68.8155 37.9081 68.7823 37.738 68.7823 37.5429C68.7823 37.3479 68.8155 37.1777 68.8778 37.0407C68.9401 36.9038 69.0148 36.8332 69.0978 36.8332H69.2472C69.7784 36.8332 70.1312 36.7627 70.3055 36.6257C70.4798 36.4887 70.567 36.2854 70.567 36.0239V34.6418L71.7498 34.5547V35.8952C71.7498 36.1775 71.7291 36.4348 71.6917 36.663C72.0486 36.7751 72.4761 36.8291 72.9742 36.8291H73.0323V38.2485H72.7667C72.0487 38.2485 71.4842 38.0991 71.0692 37.7961C70.6998 38.0991 70.1354 38.2485 69.3717 38.2485H69.0936L69.0978 38.2526Z" fill="#2D2766"/>
<path d="M73.0322 38.2524C72.9451 38.2524 72.8745 38.1819 72.8123 38.0449C72.75 37.9079 72.7168 37.7378 72.7168 37.5427C72.7168 37.3476 72.75 37.1775 72.8123 37.0405C72.8745 36.9036 72.9492 36.833 73.0322 36.833H75.3896V38.2524H73.0322Z" fill="#2D2766"/>
<path d="M81.528 38.2526C80.9677 38.2526 80.5443 38.1281 80.258 37.8791C79.8056 38.1364 79.2702 38.2651 78.6601 38.2651C77.8632 38.2651 77.2033 38.1073 76.6721 37.7919C76.3442 38.099 75.9458 38.2568 75.4726 38.2568H75.3938C75.3066 38.2568 75.2361 38.1862 75.1738 38.0492C75.1116 37.9123 75.0784 37.7421 75.0784 37.5471C75.0784 37.352 75.1116 37.1818 75.1738 37.0449C75.2361 36.9079 75.3108 36.8374 75.3938 36.8374H75.5598C75.6968 36.8374 75.8213 36.8125 75.925 36.7626C76.0288 36.7128 76.1325 36.6215 76.2322 36.4929C76.3318 36.3601 76.4065 36.2439 76.4604 36.1442C76.5144 36.0405 76.5974 35.8786 76.7136 35.6504C76.7177 35.6379 76.726 35.6255 76.7343 35.613C76.7426 35.6006 76.7509 35.5798 76.7634 35.5591C76.7758 35.5383 76.7842 35.5176 76.7925 35.501C77.0498 35.0029 77.3237 34.6294 77.6142 34.3721C77.9047 34.1147 78.3032 33.9902 78.8012 33.9902C79.7101 33.9902 80.3161 34.6294 80.6273 35.9118C80.7145 36.2937 80.8183 36.5427 80.9386 36.663C81.059 36.7834 81.2831 36.8415 81.6027 36.8415H81.8185V38.2609H81.5321L81.528 38.2526ZM78.7971 36.9619C79.1374 36.9619 79.4404 36.9121 79.706 36.8124C79.569 36.2397 79.4362 35.8413 79.3075 35.6089C79.1789 35.3806 78.988 35.2644 78.7307 35.2644C78.4941 35.2644 78.2907 35.3474 78.1247 35.5134C77.9587 35.6794 77.7429 36.0197 77.4773 36.5385L77.3859 36.717C77.8093 36.8789 78.2783 36.9619 78.7971 36.9619Z" fill="#2D2766"/>
<path d="M81.8185 38.2525C81.7313 38.2525 81.6608 38.182 81.5985 38.045C81.5363 37.9081 81.5031 37.7379 81.5031 37.5428C81.5031 37.3478 81.5363 37.1776 81.5985 37.0407C81.6608 36.9037 81.7355 36.8331 81.8185 36.8331H82.0052C83.6073 36.8331 84.7611 36.7335 85.4666 36.5385C85.4874 36.36 85.4957 36.1981 85.4957 36.0446C85.147 36.1566 84.7528 36.2106 84.3128 36.2106C83.1217 36.2106 82.5282 35.6752 82.5282 34.6044C82.5282 33.9528 82.7149 33.4008 83.0885 32.9443C83.462 32.4878 83.9227 32.2595 84.4705 32.2595C85.0765 32.2595 85.5704 32.55 85.9605 33.1311C86.3465 33.7121 86.5415 34.5214 86.5415 35.5631C86.5415 36.4389 86.4544 37.1154 86.2759 37.5926C85.4666 38.0326 84.0638 38.2525 82.0633 38.2525H81.8185ZM85.2217 31.8237L84.4332 31.1638L83.8231 31.8528L82.993 31.1638L83.682 30.3669L84.4705 31.0476L85.0806 30.3379L85.9107 31.0476L85.2217 31.8279V31.8237ZM84.7777 35.1357C85.0142 35.1357 85.2383 35.1108 85.45 35.0651C85.3836 34.5505 85.2632 34.152 85.0889 33.8657C84.9146 33.5793 84.6905 33.4382 84.4124 33.4382C84.1344 33.4382 83.9268 33.5378 83.7857 33.7329C83.6446 33.9321 83.5741 34.152 83.5741 34.3928C83.5741 34.8866 83.9766 35.1315 84.7777 35.1315V35.1357Z" fill="#2D2766"/>
<path d="M87.4422 40.3026C87.1393 40.3026 86.8321 40.2694 86.525 40.203L86.6329 39.0285C86.7989 39.0534 86.9691 39.0658 87.1476 39.0658C87.7743 39.0658 88.2308 38.8708 88.5172 38.4848C88.8077 38.0988 88.953 37.6257 88.953 37.0654C88.953 36.5923 88.8202 35.8742 88.5504 34.9155L89.7249 34.5586C89.7374 34.625 89.7623 34.7371 89.8038 34.8948C89.8453 35.0525 89.8702 35.1645 89.8868 35.2268C89.9034 35.2891 89.9283 35.3804 89.9615 35.4966C89.9947 35.6128 90.0237 35.7082 90.0445 35.7788C90.0694 35.8493 90.0984 35.924 90.1317 36.0112C90.169 36.0984 90.2064 36.1772 90.2437 36.2478C90.4346 36.6338 90.8123 36.8288 91.3767 36.8288H91.6216V38.2482H91.2647C90.721 38.2482 90.2935 38.1154 89.9947 37.8539C89.8826 38.5969 89.6129 39.1904 89.1812 39.6344C88.7496 40.0785 88.1686 40.2985 87.4422 40.2985V40.3026Z" fill="#2D2766"/>
<path d="M91.6215 38.2533C91.5343 38.2533 91.4637 38.1827 91.4015 38.0458C91.3392 37.9088 91.306 37.7387 91.306 37.5436C91.306 37.3485 91.3392 37.1784 91.4015 37.0414C91.4637 36.9044 91.5384 36.8339 91.6215 36.8339H91.7003C92.0863 36.8339 92.4432 36.7965 92.7669 36.726C92.7918 36.3109 92.8043 35.7797 92.8043 35.1281C92.8043 34.186 92.796 32.8828 92.7752 31.2144L94.0369 31.1064C94.0452 32.8371 94.0452 34.1071 94.0452 34.9247C94.0452 35.6759 94.0286 36.257 93.9996 36.6762C93.9705 37.0954 93.9041 37.4647 93.7962 37.7968C93.568 37.9213 93.2525 38.0292 92.8499 38.1205C92.4474 38.2118 92.0572 38.2574 91.6754 38.2574H91.6173L91.6215 38.2533Z" fill="#2D2766"/>
<path d="M96.9836 38.2533H95.7302V31.2144L96.9836 31.1064V38.2574V38.2533Z" fill="#2D2766"/>
</g>
<defs>
<linearGradient id="paint0_linear_798_41470" x1="124.492" y1="6.22375" x2="124.492" y2="34.8817" gradientUnits="userSpaceOnUse">
<stop stop-color="#00ABAF"/>
<stop offset="0.24" stop-color="#0093B4"/>
<stop offset="0.48" stop-color="#0080BA"/>
<stop offset="1" stop-color="#774896"/>
</linearGradient>
<linearGradient id="paint1_linear_798_41470" x1="120.362" y1="6.22363" x2="120.362" y2="34.8816" gradientUnits="userSpaceOnUse">
<stop stop-color="#00ABAF"/>
<stop offset="0.24" stop-color="#0093B4"/>
<stop offset="0.48" stop-color="#0080BA"/>
<stop offset="1" stop-color="#774896"/>
</linearGradient>
<linearGradient id="paint2_linear_798_41470" x1="125.741" y1="6.22416" x2="125.741" y2="34.8821" gradientUnits="userSpaceOnUse">
<stop stop-color="#00ABAF"/>
<stop offset="0.24" stop-color="#0093B4"/>
<stop offset="0.48" stop-color="#0080BA"/>
<stop offset="1" stop-color="#774896"/>
</linearGradient>
<linearGradient id="paint3_linear_798_41470" x1="118.661" y1="6.22385" x2="118.661" y2="34.8818" gradientUnits="userSpaceOnUse">
<stop stop-color="#29B2B2"/>
<stop offset="0.27" stop-color="#1091B3"/>
<stop offset="0.48" stop-color="#017EB5"/>
<stop offset="1" stop-color="#704B98"/>
</linearGradient>
<linearGradient id="paint4_linear_798_41470" x1="111.584" y1="6.22408" x2="111.584" y2="34.882" gradientUnits="userSpaceOnUse">
<stop stop-color="#00ABAF"/>
<stop offset="0.24" stop-color="#0093B4"/>
<stop offset="0.48" stop-color="#0080BA"/>
<stop offset="1" stop-color="#774896"/>
</linearGradient>
<linearGradient id="paint5_linear_798_41470" x1="116.959" y1="6.2238" x2="116.959" y2="34.8818" gradientUnits="userSpaceOnUse">
<stop stop-color="#00ABAF"/>
<stop offset="0.24" stop-color="#0093B4"/>
<stop offset="0.48" stop-color="#0080BA"/>
<stop offset="1" stop-color="#774896"/>
</linearGradient>
<linearGradient id="paint6_linear_798_41470" x1="112.829" y1="6.22331" x2="112.829" y2="34.8813" gradientUnits="userSpaceOnUse">
<stop stop-color="#00ABAF"/>
<stop offset="0.24" stop-color="#0093B4"/>
<stop offset="0.48" stop-color="#0080BA"/>
<stop offset="1" stop-color="#774896"/>
</linearGradient>
<clipPath id="clip0_798_41470">
<rect width="131.387" height="40.3743" fill="white" transform="translate(0.613281 0.8125)"/>
</clipPath>
</defs>
</svg>
